<svg width="24" height="24" viewBox="0 0 24 24" fill="none" xmlns="http://www.w3.org/2000/svg">
<path d="M17.9939 3.004C20.4269 3.004 21.9999 4.516 21.9999 7.5C21.9999 9.22 21.0019 11.44 20.1679 12.735C17.3789 17.068 13.9349 21.475 10.5249 21.475C6.81886 21.475 5.85486 14.644 5.43286 13.043C5.01086 11.442 4.89986 10.833 4.26286 9.81C3.94586 10.03 3.50286 10.339 2.93286 10.74C2.82518 10.8156 2.69206 10.8457 2.56233 10.8238C2.43261 10.8019 2.31675 10.7297 2.23986 10.623L0.925858 8.807C0.859866 8.71572 0.826628 8.60483 0.831528 8.4923C0.836429 8.37977 0.879181 8.2722 0.952858 8.187C3.77986 4.915 6.12886 3.278 7.99986 3.278C10.3919 3.278 11.1249 6.094 11.3239 7.501C11.6239 9.618 12.0139 12.239 12.5689 13.373C13.1249 12.581 14.7489 10.485 14.5349 9.383C14.4409 8.896 13.2179 9.566 12.6479 9.461C12.2229 9.381 11.8429 9.059 11.8429 8.435C11.8429 7.125 13.6939 3.005 17.9929 3.005M17.9999 5.005C15.8059 5.005 14.7489 6.538 14.3469 7.213C15.5969 7.259 16.3169 8.031 16.4809 9.016C16.8689 11.346 14.5639 13.936 14.1409 14.581C13.7449 15.184 11.0799 17.909 9.89086 11.221C9.65077 9.82865 9.42908 8.4332 9.22586 7.035C9.05586 5.884 8.35386 5.272 7.99686 5.272C7.15386 5.272 6.07686 5.922 4.14086 7.787C6.04586 7.672 6.68586 10.063 7.05786 11.42C7.87286 14.404 8.62786 19.475 10.6779 19.475C12.4039 19.475 15.1159 16.83 18.0479 12.437C18.2559 12.125 20.0129 9.412 20.0129 7.4C20.0129 5.005 18.5439 5.005 17.9999 5.005Z" fill="white"/>
</svg>
