<svg width="37" height="26" viewBox="0 0 37 26" fill="none" xmlns="http://www.w3.org/2000/svg">
<g id="tv1 logo" clip-path="url(#clip0_158_18544)">
<path id="Vector" d="M0 20.1274V3.91797H3.41245V8.48746H9.12398V11.606H3.41245V19.8734C3.41245 21.6863 4.48962 22.8832 6.35784 22.8832C7.72615 22.9008 9.08722 22.6801 10.3812 22.2308V25.1318C8.83701 25.8208 7.25576 25.9652 5.96315 25.9652C2.29909 25.9652 0 23.6444 0 20.1274Z" fill="white"/>
<path id="Vector_2" d="M19.6492 25.9961C17.5655 25.9961 16.6676 24.3285 16.0575 22.8054L10.202 8.48438H13.9376L19.257 22.1546C19.5095 22.8079 19.8671 22.8436 20.1187 22.1546L25.2202 8.48438H28.8118L23.2442 22.841C22.7073 24.2215 21.8043 25.9961 19.6492 25.9961Z" fill="white"/>
<path id="Vector_3" d="M33.4074 4.42474L29.995 7.28927V3.23118C30.9644 2.43349 32.0063 1.52707 32.9042 0.801592C33.4091 0.402324 34.2338 0.00390625 34.9879 0.00390625C36.4605 0.00390625 36.9991 0.946858 36.9991 2.14296V25.783H33.4074V4.42474Z" fill="white"/>
</g>
<defs>
<clipPath id="clip0_158_18544">
<rect width="37" height="26" fill="white"/>
</clipPath>
</defs>
</svg>
